<svg width="50" height="79" viewBox="0 0 50 79" fill="none" xmlns="http://www.w3.org/2000/svg">
<path d="M17.5 68.9702L28.625 59.5V79L17.5 68.9702Z" fill="#3A6351"/>
<path d="M36.4391 39.2918C38.9622 42.0364 40.5 45.6827 40.5 49.6843C40.5 57.1593 35.1338 63.3947 28.0035 64.8279L28.125 64.8905L28 74.0389L27.674 74.1464C40.2238 72.8266 50 62.3228 50 49.5607C50 43.9012 48.0774 38.6859 44.843 34.5186C42.7033 35.7029 39.3214 37.634 36.4391 39.2918Z" fill="#3A6351"/>
<path d="M34.5 11.772L25.3827 0L16.3827 11.772H21.25H29.75H34.5Z" fill="#3A6351"/>
<path d="M21.25 24.8353C10 24.8353 0 35.9052 0 49.5607C0 56.4848 2.87772 62.7441 7.51481 67.2326C9.3673 65.4316 11.9082 62.9144 14.0257 60.8051C11.0813 57.9947 9.25 54.051 9.25 49.6843C9.25 41.1497 13 34 21.25 34C29.5 34 29.75 24.8353 29.75 24.8353V11.772H21.25V24.8353Z" fill="#3A6351"/>
</svg>
